<svg width="9" height="17" viewBox="0 0 9 17" fill="none" xmlns="http://www.w3.org/2000/svg">
<path d="M1.49153 8.36364L8.54608 1.0689C8.60416 1.01011 8.65008 0.940318 8.68118 0.863558C8.71228 0.786797 8.72794 0.704593 8.72725 0.621703C8.72657 0.538813 8.70955 0.456882 8.67719 0.380652C8.64483 0.304422 8.59777 0.235407 8.53872 0.177599C8.47968 0.119792 8.40983 0.0743401 8.33321 0.0438749C8.25659 0.0134097 8.17473 -0.00146431 8.09237 0.000113597C8.01 0.0016915 7.92876 0.01969 7.85335 0.0530676C7.77794 0.0864451 7.70986 0.134539 7.65305 0.194566L0.17648 7.92647C0.0633164 8.04351 0 8.20035 0 8.36364C0 8.52692 0.0633164 8.68377 0.17648 8.8008L7.65305 16.5327C7.70986 16.5927 7.77794 16.6408 7.85335 16.6742C7.92876 16.7076 8.01 16.7256 8.09237 16.7272C8.17473 16.7287 8.25659 16.7139 8.33321 16.6834C8.40983 16.6529 8.47968 16.6075 8.53872 16.5497C8.59777 16.4919 8.64483 16.4229 8.67719 16.3466C8.70955 16.2704 8.72657 16.1885 8.72725 16.1056C8.72794 16.0227 8.71228 15.9405 8.68118 15.8637C8.65008 15.787 8.60416 15.7172 8.54608 15.6584L1.49153 8.36364Z" fill="#0B243A"/>
</svg>
